HIERARCHY
ROOT Hips
{
	OFFSET 0.00000 0.00000 0.00000
	CHANNELS 6 Xposition Yposition Zposition Zrotation Yrotation Xrotation 
	JOINT LHipJoint
	{
		OFFSET 0 0 0
		CHANNELS 3 Zrotation Yrotation Xrotation
		JOINT LeftUpLeg
		{
			OFFSET 1.37590 -1.78394 0.89329
			CHANNELS 3 Zrotation Yrotation Xrotation
			JOINT LeftLeg
			{
				OFFSET 2.47928 -6.81178 0.00000
				CHANNELS 3 Zrotation Yrotation Xrotation
				JOINT LeftFoot
				{
					OFFSET 2.63345 -7.23535 0.00000
					CHANNELS 3 Zrotation Yrotation Xrotation
					JOINT LeftToeBase
					{
						OFFSET 0.23938 -0.65768 2.27012
						CHANNELS 3 Zrotation Yrotation Xrotation
						End Site
						{
							OFFSET 0.00000 -0.00000 1.18363
						}
					}
				}
			}
		}
	}
	JOINT RHipJoint
	{
		OFFSET 0 0 0
		CHANNELS 3 Zrotation Yrotation Xrotation
		JOINT RightUpLeg
		{
			OFFSET -1.33617 -1.78394 0.89329
			CHANNELS 3 Zrotation Yrotation Xrotation
			JOINT RightLeg
			{
				OFFSET -2.56922 -7.05888 0.00000
				CHANNELS 3 Zrotation Yrotation Xrotation
				JOINT RightFoot
				{
					OFFSET -2.56568 -7.04915 0.00000
					CHANNELS 3 Zrotation Yrotation Xrotation
					JOINT RightToeBase
					{
						OFFSET -0.27533 -0.75646 2.18105
						CHANNELS 3 Zrotation Yrotation Xrotation
						End Site
						{
							OFFSET -0.00000 -0.00000 1.15233
						}
					}
				}
			}
		}
	}
	JOINT LowerBack
	{
		OFFSET 0 0 0
		CHANNELS 3 Zrotation Yrotation Xrotation
		JOINT Spine
		{
			OFFSET 0.06190 2.15152 -0.00935
			CHANNELS 3 Zrotation Yrotation Xrotation
			JOINT Spine1
			{
				OFFSET 0.06334 2.15332 0.00872
				CHANNELS 3 Zrotation Yrotation Xrotation
				JOINT Neck
				{
					OFFSET 0 0 0
					CHANNELS 3 Zrotation Yrotation Xrotation
					JOINT Neck1
					{
						OFFSET -0.04202 1.66908 0.23524
						CHANNELS 3 Zrotation Yrotation Xrotation
						JOINT Head
						{
							OFFSET 0.07510 1.69357 -0.24440
							CHANNELS 3 Zrotation Yrotation Xrotation
							End Site
							{
								OFFSET 0.02556 1.71719 -0.11000
							}
						}
					}
				}
				JOINT LeftShoulder
				{
					OFFSET 0 0 0
					CHANNELS 3 Zrotation Yrotation Xrotation
					JOINT LeftArm
					{
						OFFSET 3.67168 1.26306 -0.41342
						CHANNELS 3 Zrotation Yrotation Xrotation
						JOINT LeftForeArm
						{
							OFFSET 4.68510 -0.00000 -0.00000
							CHANNELS 3 Zrotation Yrotation Xrotation
							JOINT LeftHand
							{
								OFFSET 3.39626 -0.00000 -0.00000
								CHANNELS 3 Zrotation Yrotation Xrotation
								JOINT LeftFingerBase
								{
									OFFSET 0 0 0
									CHANNELS 3 Zrotation Yrotation Xrotation
									JOINT LeftHandIndex1
									{
										OFFSET 0.48608 -0.00000 -0.00000
										CHANNELS 3 Zrotation Yrotation Xrotation
										End Site
										{
											OFFSET 0.39189 -0.00000 -0.00000
										}
									}
								}
								JOINT LThumb
								{
									OFFSET 0 0 0
									CHANNELS 3 Zrotation Yrotation Xrotation
									End Site
									{
										OFFSET 0.39787 -0.00000 0.39787
									}
								}
							}
						}
					}
				}
				JOINT RightShoulder
				{
					OFFSET 0 0 0
					CHANNELS 3 Zrotation Yrotation Xrotation
					JOINT RightArm
					{
						OFFSET -3.04136 1.42992 -0.76390
						CHANNELS 3 Zrotation Yrotation Xrotation
						JOINT RightForeArm
						{
							OFFSET -5.55576 -0.00000 -0.00000
							CHANNELS 3 Zrotation Yrotation Xrotation
							JOINT RightHand
							{
								OFFSET -3.32774 -0.00000 -0.00000
								CHANNELS 3 Zrotation Yrotation Xrotation
								JOINT RightFingerBase
								{
									OFFSET 0 0 0
									CHANNELS 3 Zrotation Yrotation Xrotation
									JOINT RightHandIndex1
									{
										OFFSET -0.50763 -0.00000 -0.00000
										CHANNELS 3 Zrotation Yrotation Xrotation
										End Site
										{
											OFFSET -0.40926 -0.00000 -0.00000
										}
									}
								}
								JOINT RThumb
								{
									OFFSET 0 0 0
									CHANNELS 3 Zrotation Yrotation Xrotation
									End Site
									{
										OFFSET -0.41551 -0.00000 0.41551
									}
								}
							}
						}
					}
				}
			}
		}
	}
}
MOTION
Frames: 5
Frame Time: .0083333
0.7806 17.5348 3.8318 -468.9320 -78.3541 466.0860 0.0000 0.0000 0.0000 3.7172 -3.9755 -51.7984 12.5388 18.6093 67.6869 -139.9814 -5.8212 -176.4836 0.0665 1.6633 4.5760 0.0000 0.0000 0.0000 38.0336 2.5423 -13.2208 -3.2249 -11.0505 32.4505 -0.4936 2.8256 -12.6036 -1.5700 -7.9062 22.4296 8.6877 0.4413 3.5792 4.5058 0.9557 -0.7191 -0.2459 0.3097 -2.6926 -6.3094 -4.7044 -16.8238 5.9920 -6.0330 15.2220 2.3009 -2.6892 7.8456 -0.0000 -0.0000 0.0000 -86.0808 16.5257 25.7393 25.9550 -37.1642 -8.8604 -0.0000 -0.0000 5.0668 10.0323 4.3931 0.7764 -7.1250 0.0000 -0.0000 -13.6123 34.1880 3.6995 -0.0000 -0.0000 0.0000 83.9396 20.1341 48.8484 -62.1798 56.8634 -36.1607 0.0000 -0.0000 -9.3639 -10.5555 -11.8952 2.1996 7.1250 -0.0000 -0.0000 14.7974 -41.6030 1.2709
0.6651 17.5539 3.8308 -470.4800 -78.0239 467.2690 0.0000 0.0000 0.0000 4.3485 -4.0256 -55.1358 11.9520 18.3703 65.8366 -139.9534 -6.4570 -176.8117 0.0903 1.9382 5.3350 0.0000 0.0000 0.0000 38.3159 2.1314 -12.1169 -3.1273 -10.8983 31.9378 -0.5069 3.0604 -12.7493 -1.5354 -7.8226 22.1766 9.0972 0.6972 3.9214 4.4255 1.3428 -0.5644 -0.5796 0.4980 -2.6876 -6.3741 -4.8589 -16.7150 6.1622 -6.2619 15.0949 2.3410 -2.7886 7.8078 -0.0000 -0.0000 0.0000 -85.7461 18.0457 25.0659 26.2463 -37.4509 -9.0370 -0.0000 -0.0000 4.4471 9.5779 4.4570 0.7513 -7.1250 0.0000 -0.0000 -13.9889 34.2306 3.7922 -0.0000 -0.0000 0.0000 83.9182 21.9840 49.1738 -62.8181 57.0153 -36.6956 0.0000 -0.0000 -9.2815 -10.4423 -11.9236 2.1806 7.1250 -0.0000 -0.0000 14.9028 -41.6203 1.2739
0.5471 17.5720 3.8293 -471.7810 -77.7162 468.1970 0.0000 0.0000 0.0000 4.9545 -4.1203 -58.3540 11.4604 18.1531 64.2679 -139.9264 -6.9735 -177.1575 0.1128 2.1658 5.9642 0.0000 0.0000 0.0000 38.5819 1.7618 -10.9774 -3.0266 -10.7380 31.4011 -0.5208 3.2258 -12.9117 -1.5042 -7.7463 21.9462 9.4592 0.9355 4.2538 4.3621 1.7056 -0.4176 -0.8696 0.6749 -2.6823 -6.4606 -5.0140 -16.6014 6.3200 -6.4848 14.9814 2.3814 -2.8877 7.7741 0.0000 0.0000 0.0000 -85.4128 19.5253 24.4581 26.5539 -37.7505 -9.2247 -0.0000 -0.0000 3.9216 9.0978 4.5504 0.7279 -7.1250 0.0000 -0.0000 -14.3915 34.3005 3.8821 0.0000 0.0000 0.0000 83.8389 23.7056 49.3794 -63.4190 57.1542 -37.2001 0.0000 -0.0000 -9.2541 -10.2764 -11.9597 2.1516 7.1250 -0.0000 -0.0000 15.0559 -41.6400 1.2801
0.4264 17.5898 3.8272 -472.7450 -77.4313 468.8210 0.0000 0.0000 0.0000 5.5487 -4.2808 -61.4824 11.0564 17.9626 62.9645 -139.9027 -7.3644 -177.4947 0.1297 2.3218 6.3960 0.0000 0.0000 0.0000 38.8442 1.4541 -9.8497 -2.9255 -10.5735 30.8547 -0.5359 3.3274 -13.0930 -1.4766 -7.6781 21.7405 9.7861 1.1556 4.5419 4.3157 2.0404 -0.2975 -1.1218 0.8380 -2.6785 -6.5673 -5.1721 -16.4743 6.4694 -6.7073 14.8896 2.4226 -2.9892 7.7463 0.0000 -0.0000 0.0000 -85.0735 20.9549 23.9103 26.8463 -38.0323 -9.4043 -0.0000 -0.0000 3.5951 8.8162 4.3287 0.6707 -7.1250 0.0000 -0.0000 -14.5771 34.0705 4.0190 0.0000 -0.0000 0.0000 83.6982 25.2912 49.4746 -63.9754 57.2794 -37.6679 0.0000 -0.0000 -9.3232 -10.1018 -12.0078 2.1227 7.1250 -0.0000 -0.0000 15.2198 -41.6707 1.2830
0.3031 17.6080 3.8249 -473.3330 -77.1628 469.1320 0.0000 0.0000 0.0000 6.1489 -4.5111 -64.5446 10.7343 17.8026 61.9155 -139.8829 -7.6295 -177.8382 0.1354 2.3719 6.5346 0.0000 0.0000 0.0000 39.1180 1.2169 -8.7710 -2.8263 -10.4084 30.3097 -0.5517 3.3777 -13.2852 -1.4553 -7.6250 21.5808 10.0900 1.3582 4.7545 4.2922 2.3443 -0.2081 -1.3350 0.9859 -2.6646 -6.6948 -5.3339 -16.3514 6.6057 -6.9291 14.8249 2.4628 -3.0926 7.7289 -0.0000 -0.0000 0.0000 -84.7380 22.3063 23.4195 27.0993 -38.2738 -9.5606 -0.0000 -0.0000 3.4988 8.5864 3.9912 0.6021 -7.1250 0.0000 -0.0000 -14.6998 33.7304 4.1801 -0.0000 -0.0000 0.0000 83.4773 26.7651 49.4801 -64.4664 57.3872 -38.0812 0.0000 -0.0000 -9.5029 -9.9519 -12.0902 2.1047 7.1250 -0.0000 -0.0000 15.3717 -41.7368 1.2707
